<?xml version="1.0" standalone="no"?>
<!DOCTYPE svg PUBLIC "-//W3C//DTD SVG 20010904//EN"
 "http://www.w3.org/TR/2001/REC-SVG-20010904/DTD/svg10.dtd">
<svg version="1.0" xmlns="http://www.w3.org/2000/svg"
 width="269.000000pt" height="295.000000pt" viewBox="0 0 269.000000 295.000000"
 preserveAspectRatio="xMidYMid meet">

<g transform="translate(0.000000,295.000000) scale(0.100000,-0.100000)"
fill="#000000" stroke="none">
<path d="M1635 2549 c-23 -41 -49 -75 -62 -80 -24 -9 -31 -46 -14 -64 5 -6
-17 -80 -55 -184 -35 -96 -64 -178 -64 -183 0 -5 17 -8 38 -6 l37 3 60 164
c48 132 65 166 84 175 21 9 22 15 17 55 -3 28 0 68 9 101 31 114 8 122 -50 19z"/>
<path d="M1066 1961 c-16 -17 -37 -60 -52 -105 -41 -129 -79 -116 336 -116
l360 0 -6 28 c-16 73 -48 160 -70 190 l-25 32 -258 0 -257 0 -28 -29z"/>
<path d="M921 1618 c-47 -104 -57 -170 -37 -249 53 -205 248 -323 510 -306
190 12 320 90 397 237 20 38 24 60 24 135 0 81 -3 98 -35 170 l-35 80 -396 3
-396 2 -32 -72z"/>
<path d="M20 800 c0 -15 7 -20 26 -20 l27 0 -7 -127 c-10 -186 -14 -213 -37
-213 -12 0 -19 -7 -19 -20 0 -19 5 -21 73 -18 56 2 72 6 72 18 0 8 -10 16 -22
18 -22 3 -23 7 -22 100 1 53 4 123 8 154 l6 58 60 -175 c45 -133 63 -175 74
-173 11 2 33 58 68 172 29 93 55 171 58 174 3 3 5 -28 6 -69 0 -41 4 -109 8
-153 7 -76 6 -78 -17 -87 -13 -5 -22 -15 -19 -22 3 -9 45 -13 155 -14 142 -2
152 -1 152 16 0 10 -9 21 -20 24 -14 4 -18 10 -13 24 13 38 25 43 94 43 65 0
70 -2 79 -26 14 -36 13 -41 -11 -47 -12 -3 -19 -12 -17 -19 3 -9 30 -14 86
-16 69 -2 82 0 82 13 0 8 -10 19 -22 24 -19 7 -35 43 -87 195 l-63 186 -37 0
-36 0 -37 -103 c-21 -56 -51 -140 -68 -187 -23 -64 -36 -88 -55 -97 -14 -6
-25 -7 -25 -2 0 5 -9 9 -19 9 -16 0 -21 9 -25 53 -15 132 -25 270 -20 278 3 5
14 9 25 9 12 0 19 7 19 20 0 19 -5 21 -72 18 l-73 -3 -40 -132 c-22 -73 -42
-133 -45 -133 -3 0 -24 61 -48 135 l-43 135 -79 0 c-73 0 -80 -2 -80 -20z
m739 -147 c12 -40 24 -79 27 -88 5 -12 -4 -15 -55 -15 -34 0 -61 2 -61 6 0 21
55 183 61 177 3 -5 16 -40 28 -80z"/>
<path d="M966 804 c-3 -9 -6 -31 -6 -50 0 -45 33 -48 49 -4 9 27 14 30 50 30
l41 0 0 -170 0 -170 -30 0 c-23 0 -30 -4 -30 -20 0 -19 7 -20 100 -20 93 0
100 1 100 20 0 16 -7 20 -30 20 l-30 0 0 170 0 170 39 0 c34 0 40 -4 50 -30 5
-16 17 -30 25 -30 12 0 16 11 16 50 l0 50 -169 0 c-145 0 -170 -2 -175 -16z"/>
<path d="M1350 800 c0 -13 7 -20 20 -20 19 0 20 -7 20 -166 0 -157 -1 -166
-20 -171 -11 -3 -20 -14 -20 -24 0 -18 10 -19 154 -19 168 0 166 -1 166 61 0
33 -27 51 -41 28 -5 -8 -12 -19 -16 -26 -5 -7 -39 -15 -76 -19 l-67 -7 0 82 0
81 39 0 c31 0 41 -4 46 -20 3 -11 15 -20 26 -20 17 0 19 7 19 60 0 53 -2 60
-19 60 -11 0 -23 -9 -26 -20 -5 -16 -15 -20 -46 -20 l-39 0 0 70 0 70 58 0
c53 0 60 -2 71 -26 22 -50 61 -15 47 42 l-6 24 -145 0 c-138 0 -145 -1 -145
-20z"/>
<path d="M2310 805 c0 -9 11 -20 25 -25 l25 -10 -2 -162 c-3 -160 -3 -163 -25
-166 -15 -2 -23 -10 -23 -23 0 -18 6 -20 88 -17 68 2 87 6 87 18 0 8 -11 17
-25 20 -23 5 -25 11 -28 74 l-3 67 33 -3 c30 -3 37 -10 78 -88 l45 -85 53 -3
c47 -3 52 -1 52 17 0 12 -6 21 -13 21 -17 0 -50 36 -71 78 -10 18 -27 43 -38
54 -13 13 -17 23 -10 26 84 28 103 158 29 202 -27 17 -51 20 -154 20 -104 0
-123 -2 -123 -15z m232 -45 c24 -30 23 -81 -3 -114 -17 -21 -29 -26 -65 -26
l-44 0 0 78 c0 43 3 82 8 86 14 15 86 -2 104 -24z"/>
<path d="M1902 759 c-74 -37 -127 -95 -147 -163 -41 -138 12 -244 142 -282 85
-25 222 -5 210 29 -2 7 -13 11 -23 9 -10 -2 -51 -4 -89 -5 -55 -1 -78 3 -105
19 -129 75 -110 292 31 364 69 36 188 22 231 -27 9 -10 21 -37 28 -61 18 -70
-24 -182 -68 -182 -15 0 -15 41 -1 132 6 41 7 74 2 79 -5 5 -38 11 -75 14 -56
4 -70 1 -99 -18 -79 -52 -104 -183 -45 -234 15 -13 35 -23 44 -23 25 0 61 27
83 64 l19 31 0 -32 c0 -97 122 -68 176 43 33 67 31 152 -4 201 -56 79 -199 98
-310 42z m135 -134 c8 -21 -23 -99 -55 -137 l-26 -30 -18 22 c-29 36 -19 119
19 148 23 17 72 15 80 -3z"/>
</g>
</svg>
