<?xml version="1.0" standalone="no"?>
<!DOCTYPE svg PUBLIC "-//W3C//DTD SVG 20010904//EN"
 "http://www.w3.org/TR/2001/REC-SVG-20010904/DTD/svg10.dtd">
<svg version="1.0" xmlns="http://www.w3.org/2000/svg"
 width="577.000000pt" height="550.000000pt" viewBox="0 0 577.000000 550.000000"
 preserveAspectRatio="xMidYMid meet">

<g transform="translate(0.000000,550.000000) scale(0.100000,-0.100000)"
fill="#000000" stroke="none">
<path d="M2680 5454 c-25 -2 -110 -13 -190 -25 -1089 -152 -1987 -947 -2256
-1995 -60 -234 -78 -387 -78 -659 0 -271 18 -422 79 -660 195 -758 713 -1388
1430 -1740 775 -380 1666 -380 2440 0 278 136 506 298 725 514 331 327 573
741 696 1190 396 1442 -489 2925 -1966 3296 -214 54 -385 76 -625 80 -115 1
-230 1 -255 -1z m595 -53 c329 -50 573 -128 867 -277 234 -120 443 -270 642
-464 426 -415 681 -906 778 -1502 31 -192 31 -574 0 -766 -64 -395 -192 -730
-400 -1047 -380 -581 -972 -993 -1655 -1154 -798 -188 -1655 1 -2306 507 -115
89 -304 274 -408 397 -575 683 -761 1628 -486 2479 216 669 698 1232 1334
1556 329 168 632 252 1054 294 100 10 456 -4 580 -23z"/>
<path d="M3622 5230 c-39 -24 -291 -275 -377 -375 -33 -38 -68 -79 -78 -90
-47 -52 -192 -251 -254 -350 l-69 -110 -200 -6 c-109 -4 -217 -9 -239 -13
-184 -33 -238 -49 -383 -112 -44 -19 -118 -89 -147 -138 -13 -23 -30 -72 -38
-111 -11 -54 -30 -96 -84 -185 -141 -234 -221 -437 -270 -683 -20 -101 -23
-384 -4 -472 34 -164 102 -328 191 -461 l48 -71 -94 -32 c-114 -39 -222 -94
-329 -169 -94 -65 -185 -140 -185 -153 0 -12 43 -33 130 -62 271 -91 560 -112
735 -53 51 17 101 43 138 72 l58 45 69 -25 c193 -70 394 -97 583 -78 67 7 139
15 160 19 32 5 37 3 37 -14 0 -26 23 -52 88 -96 117 -80 289 -117 457 -96 355
42 714 257 1031 618 41 46 74 87 74 91 0 17 -91 37 -289 65 -58 8 -119 15
-138 15 -18 0 -33 4 -33 9 0 4 14 39 31 76 65 145 123 336 143 474 l7 43 -36
-6 c-59 -11 -180 -55 -298 -107 -61 -27 -114 -49 -117 -49 -3 0 -5 80 -6 178
0 186 -6 226 -55 404 -52 188 -138 376 -258 564 -28 44 -51 92 -51 106 0 77
-65 200 -132 248 -36 26 -209 100 -271 115 -32 8 -32 8 -10 43 93 148 269 358
484 577 148 151 178 187 184 218 22 114 -103 198 -203 137z m99 -70 c12 -7 19
-21 19 -38 0 -21 -20 -48 -89 -116 l-89 -88 -36 38 -36 39 68 65 c75 73 120
110 134 110 5 0 18 -5 29 -10z m-252 -264 l33 -35 -99 -113 c-183 -208 -310
-383 -425 -588 l-54 -95 -53 -5 c-29 -3 -54 -3 -56 1 -7 10 141 274 212 376
65 96 170 237 195 265 7 7 42 47 77 88 77 89 124 139 132 140 3 0 20 -15 38
-34z m-687 -681 c3 -3 -17 -51 -44 -107 l-50 -101 -123 7 c-195 10 -379 47
-425 84 l-23 18 45 22 c62 28 145 49 258 61 145 17 352 26 362 16z m438 -68
c30 -12 54 -26 54 -32 -2 -20 -64 -46 -159 -66 -53 -12 -99 -19 -102 -16 -5 5
47 105 70 135 13 17 59 9 137 -21z m-1156 -96 c44 -46 164 -88 321 -112 121
-19 536 -16 655 4 167 29 287 74 311 118 5 11 16 19 24 19 23 0 82 -81 101
-139 17 -54 17 -54 -5 -72 -49 -40 -219 -89 -398 -115 -130 -19 -532 -22 -668
-5 -173 22 -323 58 -430 102 -47 20 -55 26 -55 50 0 40 26 95 66 139 20 22 39
40 43 40 4 0 20 -13 35 -29z m-120 -284 c28 -13 89 -34 136 -47 47 -13 86 -24
88 -26 2 -1 -17 -28 -41 -61 -153 -202 -252 -407 -302 -627 -21 -89 -15 -116
25 -116 37 0 55 27 65 95 23 165 120 365 293 606 l57 80 75 -6 c396 -29 641
-23 888 25 68 13 230 67 260 86 13 9 25 14 28 12 19 -20 99 -157 151 -260 106
-212 164 -408 182 -616 8 -98 7 -130 -4 -257 l-7 -70 -101 -65 c-176 -112
-354 -312 -384 -427 -3 -14 -24 -36 -46 -50 -89 -56 -192 -174 -245 -279 -20
-40 -24 -43 -99 -60 -61 -15 -117 -19 -258 -19 -170 0 -187 2 -303 32 -279 72
-517 240 -669 471 -181 274 -229 608 -139 962 32 125 79 256 128 355 47 93
158 285 166 285 3 0 28 -11 56 -23z m2346 -1083 c0 -23 -115 -344 -143 -400
l-36 -71 -168 -6 c-177 -7 -312 -26 -403 -58 -82 -29 -86 -25 -39 41 117 168
348 328 649 452 111 45 140 54 140 42z m-60 -564 c128 -9 258 -26 289 -36 18
-6 -106 -134 -234 -242 -250 -210 -523 -335 -767 -349 -151 -9 -298 29 -381
100 l-38 32 29 73 c132 324 504 466 1102 422z m-2375 -208 c41 -38 108 -91
149 -118 42 -26 76 -51 76 -54 0 -3 -24 -20 -52 -37 -127 -77 -312 -89 -567
-37 -87 17 -182 44 -195 55 -12 11 136 111 249 168 81 41 214 88 259 90 4 1
41 -30 81 -67z"/>
<path d="M1826 2765 c-21 -21 -20 -35 5 -131 38 -146 104 -264 210 -371 140
-142 334 -231 544 -249 59 -6 74 -4 88 10 20 21 21 36 4 59 -9 13 -36 20 -103
27 -333 35 -580 248 -658 570 -21 87 -25 95 -48 98 -14 2 -33 -4 -42 -13z"/>
<path d="M1835 1256 c-34 -12 -72 -30 -85 -39 -30 -21 -47 -22 -30 -2 26 31
-11 15 -50 -22 -32 -31 -41 -47 -46 -85 -6 -46 -6 -48 17 -48 13 0 71 27 129
60 58 33 108 60 112 60 33 0 -28 -127 -127 -265 -65 -91 -73 -113 -55 -159 17
-47 43 -32 105 62 109 163 255 336 271 319 17 -17 -4 -55 -152 -267 -39 -55
-45 -70 -40 -98 6 -41 24 -64 41 -54 7 4 44 45 81 92 83 103 197 224 238 253
l31 22 -35 -43 c-96 -118 -140 -199 -140 -258 0 -62 52 -104 103 -85 31 12
125 79 146 104 20 25 28 21 41 -17 6 -18 19 -41 30 -51 24 -22 44 -11 105 57
26 29 44 44 40 33 -17 -42 -17 -91 -1 -104 22 -18 58 -2 117 52 80 73 81 74
69 43 -27 -72 3 -124 61 -104 17 6 54 32 83 59 l53 48 9 -36 c20 -80 94 -93
172 -30 46 36 87 85 79 94 -3 3 -29 -9 -58 -26 -61 -38 -112 -40 -117 -4 -3
17 9 28 58 54 77 41 112 81 108 123 -2 24 -8 32 -28 34 -65 10 -158 -51 -200
-131 -25 -47 -93 -97 -132 -97 -18 0 -20 4 -14 33 3 17 18 56 33 85 23 46 30
52 57 52 26 0 36 7 59 45 33 55 33 55 5 55 l-21 0 23 24 c13 15 20 31 16 41
-9 24 -44 10 -83 -31 -25 -26 -40 -34 -67 -34 -28 0 -40 -7 -59 -32 -13 -18
-27 -41 -31 -51 -5 -17 -2 -18 34 -12 22 4 40 4 40 0 0 -4 -19 -30 -42 -58
-107 -127 -223 -149 -142 -27 20 30 25 47 21 70 -4 17 -2 30 3 30 17 0 11 38
-7 48 -21 12 -86 -6 -145 -41 -43 -25 -132 -103 -139 -122 -7 -18 -135 -95
-157 -95 -18 0 -22 6 -22 29 0 41 71 176 129 246 113 135 107 123 89 153 -28
46 -49 39 -157 -53 -56 -47 -101 -89 -101 -93 -1 -4 -26 -34 -57 -67 -58 -62
-60 -60 -13 10 15 22 44 73 65 113 38 75 41 116 10 129 -34 12 -73 -13 -167
-110 -63 -64 -94 -91 -85 -72 8 17 22 52 31 78 14 43 15 51 1 84 -14 34 -31
53 -45 52 -3 0 -32 -10 -65 -23z m1257 -338 c-23 -21 -46 -38 -52 -38 -17 0 5
34 47 70 53 47 58 17 5 -32z m-522 -18 c-53 -61 -99 -100 -119 -100 -21 0 -11
47 17 72 31 30 144 99 150 93 3 -2 -19 -31 -48 -65z"/>
<path d="M3746 1235 c-67 -40 -216 -157 -265 -209 -25 -26 -43 -36 -65 -36
-24 0 -27 3 -16 10 12 8 11 10 -8 10 -33 0 -76 -25 -96 -54 -26 -41 -21 -56
19 -56 19 0 35 -4 35 -8 0 -16 -67 -72 -86 -72 -37 0 -127 -113 -107 -134 17
-17 45 3 143 99 l106 105 82 0 82 0 -30 -56 c-32 -61 -37 -93 -18 -112 22 -22
61 -12 115 28 51 40 72 70 36 55 -34 -14 -63 -17 -63 -6 0 6 10 31 22 56 19
39 26 45 54 45 25 0 37 8 58 38 34 49 33 62 -4 62 -16 0 -30 2 -30 5 0 2 18
34 39 69 65 106 83 146 77 172 -4 13 -10 24 -14 24 -5 0 -34 -16 -66 -35z
m-58 -140 c-28 -48 -57 -88 -62 -90 -27 -8 -116 -13 -116 -7 1 4 26 27 56 52
146 119 169 137 172 135 1 -1 -21 -42 -50 -90z"/>
<path d="M3830 1027 c-33 -26 -60 -71 -60 -98 0 -16 5 -29 11 -29 7 0 5 -10
-5 -26 -25 -37 -14 -53 16 -23 13 13 29 33 35 43 5 9 25 21 45 25 l35 8 -34
-49 c-40 -60 -45 -118 -12 -141 11 -8 28 -13 38 -10 26 7 121 92 121 109 0 18
-3 18 -50 -6 -22 -11 -44 -20 -50 -20 -21 0 -8 40 30 91 65 86 51 124 -38 110
-48 -7 -52 -7 -47 10 7 22 -12 25 -35 6z"/>
</g>
</svg>
